# xmcd CD database file
#
# Track frame offsets:
#	150
#	19156
#	40985
#	64849
#	91570
#	112504
#	129950
#	156163
#	175652
#	194187
#
# Disc length: 2813 seconds
#
# Revision: 0
# Processed by: cddbd v1.4PL0 Copyright (c) Steve Scherf et al.
# Submitted via: CDex 1.40Release
#
DISCID=760afb0a
DTITLE=Seth James - Bad Luck and Trouble
DYEAR=1900
DGENRE=Blues
TTITLE0=Sweet Thing
TTITLE1=Bad Luck and Trouble
TTITLE2=House on the Hill
TTITLE3=Crying at Midnight
TTITLE4=Chains at My Feet
TTITLE5=Going Down
TTITLE6=Down and Out
TTITLE7=Juke Joint
TTITLE8=Sweet Baby's Gone
TTITLE9=No Good
EXTD=ID3G: 0
EXTT0=
EXTT1=
EXTT2=
EXTT3=
EXTT4=
EXTT5=
EXTT6=
EXTT7=
EXTT8=
EXTT9=
PLAYORDER=
